<svg id="Icon_awesome-arrow-alt-circle-right" data-name="Icon awesome-arrow-alt-circle-right" xmlns="http://www.w3.org/2000/svg" width="11.766" height="11.766" viewBox="0 0 11.766 11.766">
  <path id="Icon_awesome-arrow-alt-circle-right-2" data-name="Icon awesome-arrow-alt-circle-right" d="M6.446.563A5.883,5.883,0,1,1,.563,6.446,5.882,5.882,0,0,1,6.446.563ZM3.694,7.489H6.446V9.171a.285.285,0,0,0,.486.2L9.643,6.647a.282.282,0,0,0,0-.4L6.932,3.518a.285.285,0,0,0-.486.2V5.4H3.694a.286.286,0,0,0-.285.285V7.2A.286.286,0,0,0,3.694,7.489Z" transform="translate(-0.563 -0.563)" fill="#fff"/>
</svg>
